<?xml version="1.0" encoding="UTF-8"?>
<svg xmlns="http://www.w3.org/2000/svg" xmlns:xlink="http://www.w3.org/1999/xlink" width="0"
  height="0">
  <defs>
    <symbol id="icon-arrow" xmlns="http://www.w3.org/2000/svg" viewBox="0 0 32 32">
      <path
        d="M 12.96875 4.28125 L 11.53125 5.71875 L 21.8125 16 L 11.53125 26.28125 L 12.96875 27.71875 L 23.96875 16.71875 L 24.65625 16 L 23.96875 15.28125 Z"
      />
    </symbol>

    <symbol id="icon-arrow-down" viewBox="0 0 24 24" xmlns="http://www.w3.org/2000/svg">
      <path d="M7.41 8.59L12 13.17l4.59-4.58L18 10l-6 6-6-6z" />
    </symbol>

    <symbol id="icon-arrow" viewBox="0 0 24 24">
      <path
        d="M60 32a4 4 0 0 1-4 4H18.283l4.42 4.051a4 4 0 0 1-5.406 5.898l-12-11a4 4 0 0 1 0-5.898l12-11a4 4 0 1 1 5.406 5.898L18.283 28H56a4 4 0 0 1 4 4z" />
    </symbol>

    <symbol id="icon-checkbox" viewBox="0 0 20 20">
      <path
        d="M7.629,14.566c0.125,0.125,0.291,0.188,0.456,0.188c0.164,0,0.329-0.062,0.456-0.188l8.219-8.221c0.252-0.252,0.252-0.659,0-0.911c-0.252-0.252-0.659-0.252-0.911,0l-7.764,7.763L4.152,9.267c-0.252-0.251-0.66-0.251-0.911,0c-0.252,0.252-0.252,0.66,0,0.911L7.629,14.566z"
      ></path>
    </symbol>
    <symbol id="icon-double-check" viewBox="0 0 20 20">
      <path
        d="M12.2 17.7c-.3 0-.5-.1-.7-.3l-4.2-4.2c-.4-.4-.4-1 0-1.4s1-.4 1.4 0l3.5 3.5L20 7.5c.4-.4 1-.4 1.4 0s.4 1 0 1.4l-8.5 8.5c-.1.2-.4.3-.7.3z"
      ></path>
      <path
        d="M7.2 17.7c-.3 0-.5-.1-.7-.3l-4.2-4.2c-.4-.4-.4-1 0-1.4s1-.4 1.4 0L7.9 16c.4.4.4 1 0 1.4-.1.2-.4.3-.7.3zm5.3-5.2c-.3 0-.5-.1-.7-.3-.4-.4-.4-1 0-1.4L15 7.5c.4-.4 1-.4 1.4 0s.4 1 0 1.4l-3.2 3.3c-.2.2-.4.3-.7.3z"></path>
    </symbol>
    <symbol id="icon-linkin" xmlns="http://www.w3.org/2000/svg" viewBox="0 0 448 512">
      <path
        d="M100.3 448H7.4V148.9h92.9zM53.8 108.1C24.1 108.1 0 83.5 0 53.8a53.8 53.8 0 0 1 107.6 0c0 29.7-24.1 54.3-53.8 54.3zM447.9 448h-92.7V302.4c0-34.7-.7-79.2-48.3-79.2-48.3 0-55.7 37.7-55.7 76.7V448h-92.8V148.9h89.1v40.8h1.3c12.4-23.5 42.7-48.3 87.9-48.3 94 0 111.3 61.9 111.3 142.3V448z" />
    </symbol>
    <symbol id="icon-map" xmlns="http://www.w3.org/2000/svg" viewBox="0 0 32 32">
      <path
        d="M 22 3 C 18.699 3 16 5.699 16 9 C 16 9.992 16.383 11.004 16.875 12.125 C 17.367 13.246 17.988 14.43425 18.625 15.53125 C 19.898 17.72625 21.1875 19.5625 21.1875 19.5625 L 22 20.75 L 22.8125 19.5625 C 22.8125 19.5625 24.101 17.72625 25.375 15.53125 C 26.012 14.43325 26.633 13.246 27.125 12.125 C 27.617 11.004 28 9.992 28 9 C 28 5.699 25.301 3 22 3 z M 11.96875 4.9375 L 4 8.34375 L 4 27.53125 L 12.03125 24.0625 L 20.03125 27.0625 L 28 23.65625 L 28 14.9375 C 27.363 16.1605 26.656 17.332 26 18.375 L 26 22.34375 L 21 24.46875 L 21 22.84375 L 19.53125 20.71875 C 19.37525 20.49175 19.191 20.2225 19 19.9375 L 19 24.5625 L 13 22.3125 L 13 7.4375 L 14.09375 7.84375 C 14.19175 7.16775 14.367 6.51625 14.625 5.90625 L 11.96875 4.9375 z M 22 5 C 24.219 5 26 6.781 26 9 C 26 9.387 25.7585 10.3005 25.3125 11.3125 C 24.8675 12.3245 24.238 13.47225 23.625 14.53125 C 22.809 15.93725 22.457 16.438953 22 17.126953 C 21.543 16.438953 21.191 15.93725 20.375 14.53125 C 19.762 13.47225 19.1335 12.3245 18.6875 11.3125 C 18.2425 10.3005 18 9.387 18 9 C 18 6.781 19.781 5 22 5 z M 11 7.5 L 11 22.34375 L 6 24.46875 L 6 9.65625 L 11 7.5 z"
      />
    </symbol>
    <symbol id="icon-mail" xmlns="http://www.w3.org/2000/svg" viewBox="0 0 32 32">
      <path
        d="M 3 8 L 3 26 L 29 26 L 29 8 Z M 7.3125 10 L 24.6875 10 L 16 15.78125 Z M 5 10.875 L 15.4375 17.84375 L 16 18.1875 L 16.5625 17.84375 L 27 10.875 L 27 24 L 5 24 Z"
      />
    </symbol>
    <symbol id="icon-home" xmlns="http://www.w3.org/2000/svg" viewBox="0 0 576 512">
      <path
        d="M575.8 255.5c0 18-15 32.1-32 32.1l-32 0 .7 160.2c0 2.7-.2 5.4-.5 8.1l0 16.2c0 22.1-17.9 40-40 40l-16 0c-1.1 0-2.2 0-3.3-.1c-1.4 .1-2.8 .1-4.2 .1L416 512l-24 0c-22.1 0-40-17.9-40-40l0-24 0-64c0-17.7-14.3-32-32-32l-64 0c-17.7 0-32 14.3-32 32l0 64 0 24c0 22.1-17.9 40-40 40l-24 0-31.9 0c-1.5 0-3-.1-4.5-.2c-1.2 .1-2.4 .2-3.6 .2l-16 0c-22.1 0-40-17.9-40-40l0-112c0-.9 0-1.9 .1-2.8l0-69.7-32 0c-18 0-32-14-32-32.1c0-9 3-17 10-24L266.4 8c7-7 15-8 22-8s15 2 21 7L564.8 231.5c8 7 12 15 11 24z" />
    </symbol>
    <symbol id="icon-email" xmlns="http://www.w3.org/2000/svg" viewBox="0 0 512 512">
      <path
        d="M64 112c-8.8 0-16 7.2-16 16l0 22.1L220.5 291.7c20.7 17 50.4 17 71.1 0L464 150.1l0-22.1c0-8.8-7.2-16-16-16L64 112zM48 212.2L48 384c0 8.8 7.2 16 16 16l384 0c8.8 0 16-7.2 16-16l0-171.8L322 328.8c-38.4 31.5-93.7 31.5-132 0L48 212.2zM0 128C0 92.7 28.7 64 64 64l384 0c35.3 0 64 28.7 64 64l0 256c0 35.3-28.7 64-64 64L64 448c-35.3 0-64-28.7-64-64L0 128z" />
    </symbol>
    <symbol id="icon-location" xmlns="http://www.w3.org/2000/svg" viewBox="0 0 384 512">
      <path
        d="M215.7 499.2C267 435 384 279.4 384 192C384 86 298 0 192 0S0 86 0 192c0 87.4 117 243 168.3 307.2c12.3 15.3 35.1 15.3 47.4 0zM192 128a64 64 0 1 1 0 128 64 64 0 1 1 0-128z" />
    </symbol>
    <symbol id="icon-facebook" xmlns="http://www.w3.org/2000/svg" viewBox="0 0 320 512">
      <path
        d="M80 299.3V512H196V299.3h86.5l18-97.8H196V166.9c0-51.7 20.3-71.5 72.7-71.5c16.3 0 29.4 .4 37 1.2V7.9C291.4 4 256.4 0 236.2 0C129.3 0 80 50.5 80 159.4v42.1H14v97.8H80z" />
    </symbol>
    <symbol id="icon-instagram" xmlns="http://www.w3.org/2000/svg" viewBox="0 0 448 512">
      <path
        d="M224.1 141c-63.6 0-114.9 51.3-114.9 114.9s51.3 114.9 114.9 114.9S339 319.5 339 255.9 287.7 141 224.1 141zm0 189.6c-41.1 0-74.7-33.5-74.7-74.7s33.5-74.7 74.7-74.7 74.7 33.5 74.7 74.7-33.6 74.7-74.7 74.7zm146.4-194.3c0 14.9-12 26.8-26.8 26.8-14.9 0-26.8-12-26.8-26.8s12-26.8 26.8-26.8 26.8 12 26.8 26.8zm76.1 27.2c-1.7-35.9-9.9-67.7-36.2-93.9-26.2-26.2-58-34.4-93.9-36.2-37-2.1-147.9-2.1-184.9 0-35.8 1.7-67.6 9.9-93.9 36.1s-34.4 58-36.2 93.9c-2.1 37-2.1 147.9 0 184.9 1.7 35.9 9.9 67.7 36.2 93.9s58 34.4 93.9 36.2c37 2.1 147.9 2.1 184.9 0 35.9-1.7 67.7-9.9 93.9-36.2 26.2-26.2 34.4-58 36.2-93.9 2.1-37 2.1-147.8 0-184.8zM398.8 388c-7.8 19.6-22.9 34.7-42.6 42.6-29.5 11.7-99.5 9-132.1 9s-102.7 2.6-132.1-9c-19.6-7.8-34.7-22.9-42.6-42.6-11.7-29.5-9-99.5-9-132.1s-2.6-102.7 9-132.1c7.8-19.6 22.9-34.7 42.6-42.6 29.5-11.7 99.5-9 132.1-9s102.7-2.6 132.1 9c19.6 7.8 34.7 22.9 42.6 42.6 11.7 29.5 9 99.5 9 132.1s2.7 102.7-9 132.1z" />
    </symbol>
    <symbol id="icon-X" xmlns="http://www.w3.org/2000/svg" viewBox="0 0 512 512">
      <path
        d="M389.2 48h70.6L305.6 224.2 487 464H345L233.7 318.6 106.5 464H35.8L200.7 275.5 26.8 48H172.4L272.9 180.9 389.2 48zM364.4 421.8h39.1L151.1 88h-42L364.4 421.8z" />
    </symbol>
    <symbol id="icon-arrow-right" xmlns="http://www.w3.org/2000/svg" viewBox="0 0 448 512">
      <path
        d="M438.6 278.6c12.5-12.5 12.5-32.8 0-45.3l-160-160c-12.5-12.5-32.8-12.5-45.3 0s-12.5 32.8 0 45.3L338.8 224 32 224c-17.7 0-32 14.3-32 32s14.3 32 32 32l306.7 0L233.4 393.4c-12.5 12.5-12.5 32.8 0 45.3s32.8 12.5 45.3 0l160-160z" />
    </symbol>
    <symbol id="icon-search" xmlns="http://www.w3.org/2000/svg" viewBox="0 0 512 512">
      <path
        d="M606.209 578.714 448.198 423.228C489.576 378.272 515 318.817 515 253.393 514.98 113.439 399.704 0 257.493 0S.006 113.439.006 253.393s115.276 253.393 257.487 253.393c61.445 0 117.801-21.253 162.068-56.586l158.624 156.099c7.729 7.614 20.277 7.614 28.006 0a19.291 19.291 0 0 0 .018-27.585zM257.493 467.8c-120.326 0-217.869-95.993-217.869-214.407S137.167 38.986 257.493 38.986c120.327 0 217.869 95.993 217.869 214.407S377.82 467.8 257.493 467.8z" />
    </symbol>

    <symbol id="icon-chevron-down" xmlns="http://www.w3.org/2000/svg" viewBox="0 0 512 512">
      <path
        d="M233.4 406.6c12.5 12.5 32.8 12.5 45.3 0l192-192c12.5-12.5 12.5-32.8 0-45.3s-32.8-12.5-45.3 0L256 338.7 86.6 169.4c-12.5-12.5-32.8-12.5-45.3 0s-12.5 32.8 0 45.3l192 192z" />
    </symbol>
    <symbol id="icon-phone" xmlns="http://www.w3.org/2000/svg" viewBox="0 0 512 512">
      <path
        d="M374.456 293.506c-9.7-10.1-21.4-15.5-33.8-15.5-12.3 0-24.1 5.3-34.2 15.4l-31.6 31.5c-2.6-1.4-5.2-2.7-7.7-4-3.6-1.8-7-3.5-9.9-5.3-29.6-18.8-56.5-43.3-82.3-75-12.5-15.8-20.9-29.1-27-42.6 8.2-7.5 15.8-15.3 23.2-22.8 2.8-2.8 5.6-5.7 8.4-8.5 21-21 21-48.2 0-69.2l-27.3-27.3c-3.1-3.1-6.3-6.3-9.3-9.5-6-6.2-12.3-12.6-18.8-18.6-9.7-9.6-21.3-14.7-33.5-14.7s-24 5.1-34 14.7l-.2.2-34 34.3c-12.8 12.8-20.1 28.4-21.7 46.5-2.4 29.2 6.2 56.4 12.8 74.2 16.2 43.7 40.4 84.2 76.5 127.6 43.8 52.3 96.5 93.6 156.7 122.7 23 10.9 53.7 23.8 88 26 2.1.1 4.3.2 6.3.2 23.1 0 42.5-8.3 57.7-24.8.1-.2.3-.3.4-.5 5.2-6.3 11.2-12 17.5-18.1 4.3-4.1 8.7-8.4 13-12.9 9.9-10.3 15.1-22.3 15.1-34.6 0-12.4-5.3-24.3-15.4-34.3l-54.9-55.1zm35.8 105.3c-.1 0-.1.1 0 0-3.9 4.2-7.9 8-12.2 12.2-6.5 6.2-13.1 12.7-19.3 20-10.1 10.8-22 15.9-37.6 15.9-1.5 0-3.1 0-4.6-.1-29.7-1.9-57.3-13.5-78-23.4-56.6-27.4-106.3-66.3-147.6-115.6-34.1-41.1-56.9-79.1-72-119.9-9.3-24.9-12.7-44.3-11.2-62.6 1-11.7 5.5-21.4 13.8-29.7l34.1-34.1c4.9-4.6 10.1-7.1 15.2-7.1 6.3 0 11.4 3.8 14.6 7l.3.3c6.1 5.7 11.9 11.6 18 17.9 3.1 3.2 6.3 6.4 9.5 9.7l27.3 27.3c10.6 10.6 10.6 20.4 0 31-2.9 2.9-5.7 5.8-8.6 8.6-8.4 8.6-16.4 16.6-25.1 24.4-.2.2-.4.3-.5.5-8.6 8.6-7 17-5.2 22.7l.3.9c7.1 17.2 17.1 33.4 32.3 52.7l.1.1c27.6 34 56.7 60.5 88.8 80.8 4.1 2.6 8.3 4.7 12.3 6.7 3.6 1.8 7 3.5 9.9 5.3.4.2.8.5 1.2.7 3.4 1.7 6.6 2.5 9.9 2.5 8.3 0 13.5-5.2 15.2-6.9l34.2-34.2c3.4-3.4 8.8-7.5 15.1-7.5 6.2 0 11.3 3.9 14.4 7.3l.2.2 55.1 55.1c10.3 10.2 10.3 20.7.1 31.3zM256.056 112.706c26.2 4.4 50 16.8 69 35.8s31.3 42.8 35.8 69c1.1 6.6 6.8 11.2 13.3 11.2.8 0 1.5-.1 2.3-.2 7.4-1.2 12.3-8.2 11.1-15.6-5.4-31.7-20.4-60.6-43.3-83.5s-51.8-37.9-83.5-43.3c-7.4-1.2-14.3 3.7-15.6 11s3.5 14.4 10.9 15.6zM473.256 209.006c-8.9-52.2-33.5-99.7-71.3-137.5s-85.3-62.4-137.5-71.3c-7.3-1.3-14.2 3.7-15.5 11-1.2 7.4 3.7 14.3 11.1 15.6 46.6 7.9 89.1 30 122.9 63.7 33.8 33.8 55.8 76.3 63.7 122.9 1.1 6.6 6.8 11.2 13.3 11.2.8 0 1.5-.1 2.3-.2 7.3-1.1 12.3-8.1 11-15.4z" />
    </symbol>
    <symbol id="icon-clock" xmlns="http://www.w3.org/2000/svg" viewBox="0 0 512 512">
      <path
        d="M221.647 0C99.433 0 0 99.433 0 221.647s99.433 221.647 221.647 221.647 221.647-99.433 221.647-221.647S343.861 0 221.647 0zm0 415.588c-106.941 0-193.941-87-193.941-193.941s87-193.941 193.941-193.941 193.941 87 193.941 193.941-87 193.941-193.941 193.941z"
        opacity="1" data-original="#000000" class="hovered-path"></path>
      <path d="M235.5 83.118h-27.706v144.265l87.176 87.176 19.589-19.589-79.059-79.059z"
        opacity="1" data-original="#000000" class="hovered-path"></path>
    </symbol>

    <symbol id="icon-business-money" xmlns="http://www.w3.org/2000/svg" viewBox="0 0 512 512">
      <path
        d="M488 144h-48a8 8 0 0 0-8 8v304a8 8 0 0 0 8 8h48a8 8 0 0 0 8-8V152a8 8 0 0 0-8-8Zm-8 304h-32V160h32ZM408 464a8 8 0 0 0 8-8V216a8 8 0 0 0-8-8h-48a8 8 0 0 0-8 8v240a8 8 0 0 0 8 8Zm-40-240h32v224h-32ZM328 464a8 8 0 0 0 8-8V272a8 8 0 0 0-8-8h-48a8 8 0 0 0-8 8v184a8 8 0 0 0 8 8Zm-40-184h32v168h-32ZM248 464a8 8 0 0 0 8-8V336a8 8 0 0 0-8-8h-48a8 8 0 0 0-8 8v120a8 8 0 0 0 8 8Zm-40-120h32v104h-32ZM168 464a8 8 0 0 0 8-8v-88a8 8 0 0 0-8-8h-48a8 8 0 0 0-8 8v88a8 8 0 0 0 8 8Zm-40-88h32v72h-32ZM88 464a8 8 0 0 0 8-8v-48a8 8 0 0 0-8-8H40a8 8 0 0 0-8 8v48a8 8 0 0 0 8 8Zm-40-48h32v32H48ZM216 144h16a8 8 0 0 0 0-16h-8v-8a8 8 0 0 0-16 0v9.376A24 24 0 0 0 216 176a8 8 0 0 1 0 16h-16a8 8 0 0 0 0 16h8v8a8 8 0 0 0 16 0v-9.376A24 24 0 0 0 216 160a8 8 0 0 1 0-16Z"></path>
      <path
        d="M488 48h-48a8 8 0 0 0 0 16h28.686l-112 112h-45.022a96.69 96.69 0 0 0 .336-8 96 96 0 1 0-113.677 94.362L164.687 296H104a8 8 0 0 0-5.657 2.343l-80 80a8 8 0 0 0 11.314 11.314L107.313 312H168a8 8 0 0 0 5.657-2.343l45.723-45.723A96.19 96.19 0 0 0 308.963 192H360a8 8 0 0 0 5.657-2.343L480 75.314V104a8 8 0 0 0 16 0V56a8 8 0 0 0-8-8ZM216 248a80 80 0 1 1 80-80 80.091 80.091 0 0 1-80 80Z"></path>
    </symbol>
    <symbol id="icon-flaticon" xmlns="http://www.w3.org/2000/svg" viewBox="0 0 64 64">
      <g>
        <path
          d="M50.63 26.226c-.13-1.394-.031-5.182 3.598-10.45a1 1 0 0 0-.116-1.274c-1.48-1.48-2.396-2.413-3.038-3.066-.845-.862-1.23-1.254-1.795-1.766a1.002 1.002 0 0 0-1.328-.013c-6.326 5.504-13.351 16.877-12.334 30.81.595 8.182 6.563 14.121 14.19 14.121 7.825 0 14.192-6.366 14.192-14.192 0-7.55-5.925-13.742-13.37-14.17zm-.824 26.362c-6.549 0-11.677-5.158-12.195-12.265-1.144-15.672 8.172-25.85 10.986-28.546.274.271.588.59 1.05 1.06.556.566 1.318 1.342 2.47 2.498-4.405 6.787-3.574 11.623-3.21 12.316.173.33.528.551.9.551 6.723 0 12.192 5.47 12.192 12.194 0 6.722-5.47 12.192-12.193 12.192zM15.114 26.226c-.13-1.39-.035-5.175 3.598-10.45a1 1 0 0 0-.116-1.274c-1.477-1.477-2.392-2.41-3.033-3.062-.848-.864-1.235-1.257-1.799-1.77a1.004 1.004 0 0 0-1.328-.014C6.111 15.16-.916 26.531.099 40.468c.598 8.181 6.566 14.12 14.192 14.12 7.827 0 14.194-6.366 14.194-14.192 0-7.551-5.926-13.744-13.371-14.17zm-.823 26.362c-6.547 0-11.678-5.158-12.198-12.266v.001c-1.14-15.674 8.175-25.851 10.99-28.546.275.271.59.591 1.052 1.063.556.566 1.317 1.34 2.467 2.495-4.405 6.788-3.574 11.623-3.21 12.315.173.33.528.552.9.552 6.723 0 12.193 5.47 12.193 12.194 0 6.722-5.47 12.192-12.194 12.192z" />
      </g>
    </symbol>
    <symbol id="icon-star" xmlns="http://www.w3.org/2000/svg" viewBox="0 0 512 512">
      <g>
        <path
          d="M510.652 185.902a27.158 27.158 0 0 0-23.425-18.71l-147.774-13.419-58.433-136.77C276.71 6.98 266.898.494 255.996.494s-20.715 6.487-25.023 16.534l-58.434 136.746-147.797 13.418A27.208 27.208 0 0 0 1.34 185.902c-3.371 10.368-.258 21.739 7.957 28.907l111.7 97.96-32.938 145.09c-2.41 10.668 1.73 21.696 10.582 28.094 4.757 3.438 10.324 5.188 15.937 5.188 4.84 0 9.64-1.305 13.95-3.883l127.468-76.184 127.422 76.184c9.324 5.61 21.078 5.097 29.91-1.305a27.223 27.223 0 0 0 10.582-28.094l-32.937-145.09 111.699-97.94a27.224 27.224 0 0 0 7.98-28.927zm0 0" />
      </g>
    </symbol>

    <symbol id="icon-calender" xmlns="http://www.w3.org/2000/svg" viewBox="0 0 512 512">
      <g>
        <path
          d="M128 0c17.7 0 32 14.3 32 32l0 32 128 0 0-32c0-17.7 14.3-32 32-32s32 14.3 32 32l0 32 48 0c26.5 0 48 21.5 48 48l0 48L0 160l0-48C0 85.5 21.5 64 48 64l48 0 0-32c0-17.7 14.3-32 32-32zM0 192l448 0 0 272c0 26.5-21.5 48-48 48L48 512c-26.5 0-48-21.5-48-48L0 192zm64 80l0 32c0 8.8 7.2 16 16 16l32 0c8.8 0 16-7.2 16-16l0-32c0-8.8-7.2-16-16-16l-32 0c-8.8 0-16 7.2-16 16zm128 0l0 32c0 8.8 7.2 16 16 16l32 0c8.8 0 16-7.2 16-16l0-32c0-8.8-7.2-16-16-16l-32 0c-8.8 0-16 7.2-16 16zm144-16c-8.8 0-16 7.2-16 16l0 32c0 8.8 7.2 16 16 16l32 0c8.8 0 16-7.2 16-16l0-32c0-8.8-7.2-16-16-16l-32 0zM64 400l0 32c0 8.8 7.2 16 16 16l32 0c8.8 0 16-7.2 16-16l0-32c0-8.8-7.2-16-16-16l-32 0c-8.8 0-16 7.2-16 16zm144-16c-8.8 0-16 7.2-16 16l0 32c0 8.8 7.2 16 16 16l32 0c8.8 0 16-7.2 16-16l0-32c0-8.8-7.2-16-16-16l-32 0zm112 16l0 32c0 8.8 7.2 16 16 16l32 0c8.8 0 16-7.2 16-16l0-32c0-8.8-7.2-16-16-16l-32 0c-8.8 0-16 7.2-16 16z" />
      </g>
    </symbol>
    <symbol id="icon-tag" xmlns="http://www.w3.org/2000/svg" viewBox="0 0 512 512">
      <g>
        <path
          d="M0 80L0 229.5c0 17 6.7 33.3 18.7 45.3l176 176c25 25 65.5 25 90.5 0L418.7 317.3c25-25 25-65.5 0-90.5l-176-176c-12-12-28.3-18.7-45.3-18.7L48 32C21.5 32 0 53.5 0 80zm112 32a32 32 0 1 1 0 64 32 32 0 1 1 0-64z" />
      </g>
    </symbol>
    <symbol id="icon-send" xmlns="http://www.w3.org/2000/svg" viewBox="0 0 100 100">
      <g>
        <path
          d="M80.114 18.776c.683-.67.335-1.75-.555-1.397L18.652 41.602c-2.511.998-2.526 4.547-.023 5.566l21.2 8.633a3 3 0 0 0 3.234-.638zM45.443 57.03a3.007 3.007 0 0 0-.67 3.298c3.014 7.272 5.926 14.588 8.894 21.878 1.02 2.503 4.568 2.488 5.566-.023l24.223-60.907c.282-.71-.557-1.03-1.102-.495z" />
      </g>
    </symbol>
    <symbol id="icon-whatsapp" xmlns="http://www.w3.org/2000/svg" viewBox="0 0 448 512">
      <path
        d="M380.9 97.1C339 55.1 283.2 32 223.9 32c-122.4 0-222 99.6-222 222 0 39.1 10.2 77.3 29.6 111L0 480l117.7-30.9c32.4 17.7 68.9 27 106.1 27h.1c122.3 0 224.1-99.6 224.1-222 0-59.3-25.2-115-67.1-157zm-157 341.6c-33.2 0-65.7-8.9-94-25.7l-6.7-4-69.8 18.3L72 359.2l-4.4-7c-18.5-29.4-28.2-63.3-28.2-98.2 0-101.7 82.8-184.5 184.6-184.5 49.3 0 95.6 19.2 130.4 54.1 34.8 34.9 56.2 81.2 56.1 130.5 0 101.8-84.9 184.6-186.6 184.6zm101.2-138.2c-5.5-2.8-32.8-16.2-37.9-18-5.1-1.9-8.8-2.8-12.5 2.8-3.7 5.6-14.3 18-17.6 21.8-3.2 3.7-6.5 4.2-12 1.4-32.6-16.3-54-29.1-75.5-66-5.7-9.8 5.7-9.1 16.3-30.3 1.8-3.7 .9-6.9-.5-9.7-1.4-2.8-12.5-30.1-17.1-41.2-4.5-10.8-9.1-9.3-12.5-9.5-3.2-.2-6.9-.2-10.6-.2-3.7 0-9.7 1.4-14.8 6.9-5.1 5.6-19.4 19-19.4 46.3 0 27.3 19.9 53.7 22.6 57.4 2.8 3.7 39.1 59.7 94.8 83.8 35.2 15.2 49 16.5 66.6 13.9 10.7-1.6 32.8-13.4 37.4-26.4 4.6-13 4.6-24.1 3.2-26.4-1.3-2.5-5-3.9-10.5-6.6z" />
    </symbol>

    <svg id="icon-hamburger" xmlns="http://www.w3.org/2000/svg" viewBox="0 0 448 512">
      <path
        d="M0 96C0 78.3 14.3 64 32 64l384 0c17.7 0 32 14.3 32 32s-14.3 32-32 32L32 128C14.3 128 0 113.7 0 96zM0 256c0-17.7 14.3-32 32-32l384 0c17.7 0 32 14.3 32 32s-14.3 32-32 32L32 288c-17.7 0-32-14.3-32-32zM448 416c0 17.7-14.3 32-32 32L32 448c-17.7 0-32-14.3-32-32s14.3-32 32-32l384 0c17.7 0 32 14.3 32 32z" />
    </svg>
  </defs>
</svg>